<?xml version="1.0" encoding="UTF-8"?>
<!DOCTYPE svg PUBLIC "-//W3C//DTD SVG 1.1//EN" "http://www.w3.org/Graphics/SVG/1.1/DTD/svg11.dtd">
<!-- Creator: CorelDRAW 2018 (64-Bit) -->
<svg xmlns="http://www.w3.org/2000/svg" xml:space="preserve" width="97.3667mm" height="20.727mm" version="1.1" style="shape-rendering:geometricPrecision; text-rendering:geometricPrecision; image-rendering:optimizeQuality; fill-rule:evenodd; clip-rule:evenodd"
viewBox="0 0 9736.66 2072.7"
 xmlns:xlink="http://www.w3.org/1999/xlink">
 <defs>
  <style type="text/css">
   <![CDATA[
    .fil6 {fill:#214D85;fill-rule:nonzero}
    .fil7 {fill:#FF8400;fill-rule:nonzero}
    .fil5 {fill:url(#id0)}
    .fil0 {fill:url(#id1)}
    .fil3 {fill:url(#id2)}
    .fil4 {fill:url(#id3)}
    .fil2 {fill:url(#id4)}
    .fil1 {fill:url(#id5)}
   ]]>
  </style>
  <linearGradient id="id0" gradientUnits="userSpaceOnUse" x1="835.35" y1="1030.55" x2="835.35" y2="1475.53">
   <stop offset="0" style="stop-opacity:1; stop-color:#F9B200"/>
   <stop offset="1" style="stop-opacity:1; stop-color:#EE781C"/>
  </linearGradient>
  <linearGradient id="id1" gradientUnits="userSpaceOnUse" x1="1073.66" y1="1929.89" x2="1073.66" y2="90.14">
   <stop offset="0" style="stop-opacity:1; stop-color:#1F497F"/>
   <stop offset="1" style="stop-opacity:1; stop-color:#2175BA"/>
  </linearGradient>
  <linearGradient id="id2" gradientUnits="userSpaceOnUse" x1="1542.92" y1="-12.66" x2="1803.35" y2="323.57">
   <stop offset="0" style="stop-opacity:1; stop-color:#F9B300"/>
   <stop offset="1" style="stop-opacity:1; stop-color:#EE781C"/>
  </linearGradient>
  <linearGradient id="id3" gradientUnits="userSpaceOnUse" xlink:href="#id1" x1="1492.46" y1="408.5" x2="314.15" y2="993.02">
  </linearGradient>
  <linearGradient id="id4" gradientUnits="userSpaceOnUse" xlink:href="#id2" x1="860.8" y1="-81.54" x2="348.05" y2="1495.14">
  </linearGradient>
  <linearGradient id="id5" gradientUnits="userSpaceOnUse" xlink:href="#id1" x1="850.84" y1="-34.08" x2="-465.97" y2="2311.44">
  </linearGradient>
 </defs>
 <g id="Layer_x0020_1">
  <metadata id="CorelCorpID_0Corel-Layer"/>
  <g id="_1296527376">
   <g>
    <g>
     <path class="fil0" d="M1905.34 211.63c73.75,93.31 134.92,358.63 -3.75,358.63 -123.16,0 -451.21,-487.18 -827.91,-487.18 111.96,40.07 219.33,102.02 315.33,186.08 385.42,337.47 442.06,903.32 126.51,1263.88 -315.54,360.55 -883.77,379.28 -1269.18,41.83 -80.45,-70.45 -146.52,-150.87 -197.93,-237.27 114.58,423.51 501.42,735.1 961.06,735.1 541.75,0 794.49,-302.86 923.68,-516.82 273.13,-452.33 265.02,-1131.41 -27.81,-1344.25z"/>
     <path class="fil1" d="M1977.49 869.4c0,-106.02 -14.91,-208.47 -42.15,-305.72 -9.61,4.26 -20.81,6.58 -33.75,6.58 -123.16,0 -451.21,-487.18 -827.91,-487.18 111.96,40.07 219.33,102.02 315.33,186.08 385.42,337.47 442.06,903.32 126.51,1263.88 -315.54,360.55 -883.77,379.28 -1269.18,41.83 -80.45,-70.45 -146.52,-150.87 -197.93,-237.27 22.51,83.2 55.66,161.98 97.67,235.02 150.49,252.01 385.95,422.66 710.9,422.66 618.85,0 1120.51,-504.07 1120.51,-1125.88z"/>
     <path class="fil2" d="M124.01 853.92c50.45,-424.07 435.06,-726.94 859.03,-676.47 36.88,4.39 72.83,11.37 107.73,20.62 -70.34,-31.85 -146.67,-53.64 -227.43,-63.25 -423.38,-50.4 -807.46,252.04 -857.85,675.55 -45.48,382.26 196.49,732.47 555.44,834.09 -292.17,-138.25 -477.23,-451.82 -436.92,-790.54z"/>
     <path class="fil3" d="M1853.85 189.93c51.24,104.38 26.56,188.58 -55.11,188.07 -81.68,-0.5 -189.41,-85.52 -240.65,-189.9 -51.25,-104.4 -26.58,-188.6 55.09,-188.09 81.67,0.5 189.42,85.52 240.67,189.92z"/>
    </g>
    <g>
     <polygon class="fil4" points="421.93,580.16 421.93,837.6 839.14,1161.53 1326.66,733.59 1392.42,801.27 1461.98,476.17 1121.15,526.77 1188.82,608.99 839.26,892.01 "/>
     <path class="fil5" d="M1040.33 1458.74l0 -400.53 201.7 -173.9 0 391.1 -201.7 183.33zm-618.8 -551.56l0 401.01 200.82 150.54 0 -392.13 -200.82 -159.42zm308.8 244.52l0 388.36 108.14 86.99 93.88 -87.47 0 -384.43 -93.33 80.92 -108.69 -84.37z"/>
    </g>
   </g>
   <g>
    <path class="fil6" d="M2627.45 1266.26l-231.75 0 314.92 -831.85 237.68 0 314.92 831.85 -231.73 0 -53.48 -148.53 -297.09 0 -53.47 148.53zm106.95 -303.02l190.14 0 -95.08 -279.27 -95.06 279.27zm1301.26 -160.44l-166.38 297.09 -166.36 0 -166.39 -297.09 0 463.46 -213.9 0 0 -831.85 225.79 0 237.69 439.7 237.66 -439.7 225.79 0 0 831.85 -213.9 0 0 -463.46zm1185.23 -368.39l142.6 534.76 124.77 -534.76 231.73 0 -225.79 831.85 -225.79 0 -142.6 -516.94 -142.6 516.94 -225.79 0 -225.79 -831.85 231.74 0 124.78 534.76 142.6 -534.76 190.14 0zm790.25 338.69c-31.68,0 -47.52,15.84 -47.52,47.54l0 65.35 202.01 0 0 -65.35c0,-31.7 -15.84,-47.54 -47.53,-47.54l-106.96 0zm338.7 481.28c-152.91,15.85 -291.56,23.77 -415.93,23.77 -53.88,0 -97.05,-16.24 -129.53,-48.72 -32.48,-32.48 -48.72,-75.67 -48.72,-129.54l0 -285.21c0,-59.41 16.82,-105.96 50.5,-139.63 33.67,-33.66 80.21,-50.5 139.64,-50.5l237.66 0c59.43,0 105.97,16.84 139.63,50.5 33.67,33.67 50.51,80.22 50.51,139.63l0 219.86 -409.98 0 0 47.52c0,11.89 3.95,21.79 11.87,29.72 7.92,7.92 17.83,11.88 29.72,11.88 78.43,0 193.31,-5.93 344.63,-17.82l0 148.54zm552.59 -427.81c0,-11.89 -3.97,-21.79 -11.89,-29.71 -7.92,-7.92 -17.82,-11.89 -29.71,-11.89l-29.71 0c-33.27,0 -61.99,1.59 -86.15,4.77 -24.17,3.17 -42.98,5.54 -56.45,7.12l0 308.98 166.37 0c31.69,0 47.54,-15.84 47.54,-47.54l0 -231.73zm-213.91 -178.25c76.85,-15.85 144.18,-23.77 202.02,-23.77l41.59 0c53.88,0 97.05,16.24 129.53,48.72 32.48,32.48 48.72,75.67 48.72,129.53l0 273.32c0,59.43 -16.82,105.97 -50.49,139.64 -33.68,33.66 -80.22,50.5 -139.63,50.5l-439.71 0 0 -831.85 207.97 0 0 213.91zm968.52 617.94c-76.85,7.93 -152.12,11.89 -225.79,11.89 -53.88,0 -97.06,-16.24 -129.54,-48.72 -32.49,-32.48 -48.73,-75.67 -48.73,-129.54l0 -303.03 -71.3 0 0 -160.43 71.3 0 23.78 -142.6 184.19 0 0 142.6 148.55 0 0 160.43 -148.55 0 0 273.33c0,11.87 3.97,21.78 11.89,29.7 7.92,7.93 17.82,11.89 29.71,11.89l154.49 0 0 154.48zm314.9 -493.16c-31.68,0 -47.52,15.84 -47.52,47.54l0 65.35 202.01 0 0 -65.35c0,-31.7 -15.84,-47.54 -47.54,-47.54l-106.95 0zm338.71 481.28c-152.92,15.85 -291.57,23.77 -415.95,23.77 -53.87,0 -97.04,-16.24 -129.53,-48.72 -32.48,-32.48 -48.72,-75.67 -48.72,-129.54l0 -285.21c0,-59.41 16.83,-105.96 50.51,-139.63 33.67,-33.66 80.2,-50.5 139.63,-50.5l237.67 0c59.42,0 105.98,16.84 139.64,50.5 33.67,33.67 50.51,80.22 50.51,139.63l0 219.86 -409.99 0 0 47.52c0,11.89 3.95,21.79 11.87,29.72 7.92,7.92 17.83,11.88 29.71,11.88 78.44,0 193.31,-5.93 344.65,-17.82l0 148.54zm689.24 0c-148.14,15.85 -278.86,23.77 -392.15,23.77 -53.88,0 -97.05,-16.24 -129.53,-48.72 -32.48,-32.48 -48.72,-75.67 -48.72,-129.54l0 -273.32c0,-59.42 16.82,-105.96 50.5,-139.63 33.67,-33.67 80.21,-50.51 139.64,-50.51l380.26 0 0 160.43 -314.91 0c-31.69,0 -47.53,15.84 -47.53,47.54l0 231.72c0,11.89 3.96,21.8 11.88,29.72 7.92,7.92 17.82,11.89 29.71,11.89 71.3,0 178.25,-5.95 320.85,-17.84l0 154.49zm303.03 -606.06c76.85,-15.85 144.19,-23.77 202.03,-23.77l53.47 0c53.88,0 97.05,16.24 129.53,48.72 32.48,32.48 48.72,75.67 48.72,129.53l0 463.46 -207.96 0 0 -439.69c0,-11.89 -3.95,-21.79 -11.87,-29.71 -7.94,-7.92 -17.83,-11.89 -29.72,-11.89l-41.6 0c-30.1,0 -57.63,1.59 -82.59,4.77 -24.94,3.17 -44.95,5.54 -60.01,7.12l0 469.4 -207.97 0 0 -831.85 207.97 0 0 213.91z"/>
    <g>
     <path class="fil7" d="M2520.15 1572.42l-113.03 0 0 -196.29 113.03 0 0 34.08 -71.43 0 0 43.17 66.44 0 0 34.08 -66.44 0 0 50.59 71.43 0 0 34.37zm172.12 0l-40.98 0 0 -87.66c0,-10.82 -1.82,-18.97 -5.45,-24.37 -3.61,-5.41 -9.29,-8.11 -17.08,-8.11 -10.5,0 -18.11,3.84 -22.82,11.55 -4.77,7.69 -7.15,20.33 -7.15,37.97l0 70.62 -40.92 0 0 -150.11 31.24 0 5.51 19.24 2.29 0c4.03,-6.87 9.86,-12.28 17.46,-16.17 7.61,-3.9 16.36,-5.83 26.21,-5.83 22.45,0 37.66,7.34 45.64,22l3.62 0c4.03,-6.97 9.93,-12.38 17.77,-16.22 7.83,-3.85 16.68,-5.78 26.53,-5.78 17,0 29.88,4.36 38.59,13.11 8.75,8.7 13.1,22.69 13.1,41.93l0 97.83 -41.1 0 0 -87.66c0,-10.82 -1.78,-18.97 -5.41,-24.37 -3.67,-5.41 -9.35,-8.11 -17.14,-8.11 -10.03,0 -17.5,3.57 -22.49,10.72 -4.95,7.19 -7.42,18.55 -7.42,34.09l0 75.33zm218.01 2.75c-17.64,0 -31.48,-6.42 -41.52,-19.21l-2.11 0c1.43,12.52 2.11,19.75 2.11,21.72l0 60.71 -40.91 0 0 -216.08 33.26 0 5.77 19.52 1.88 0c9.62,-14.85 23.78,-22.28 42.62,-22.28 17.68,0 31.57,6.84 41.6,20.54 10.03,13.7 15.03,32.71 15.03,57.09 0,16 -2.34,29.93 -7.05,41.74 -4.68,11.82 -11.36,20.81 -20.07,26.99 -8.66,6.19 -18.88,9.26 -30.61,9.26zm-12.1 -122.89c-10.08,0 -17.5,3.11 -22.14,9.29 -4.66,6.24 -7.09,16.5 -7.28,30.84l0 4.4c0,16.14 2.43,27.63 7.2,34.65 4.81,6.96 12.37,10.44 22.77,10.44 18.37,0 27.53,-15.12 27.53,-45.36 0,-14.76 -2.24,-25.79 -6.78,-33.17 -4.53,-7.38 -11.58,-11.09 -21.3,-11.09zm136.28 44.81c0,14.84 2.42,26.08 7.27,33.68 4.91,7.6 12.84,11.41 23.84,11.41 10.9,0 18.74,-3.76 23.55,-11.32 4.76,-7.57 7.15,-18.84 7.15,-33.77 0,-14.85 -2.39,-25.99 -7.24,-33.41 -4.81,-7.42 -12.74,-11.13 -23.73,-11.13 -10.92,0 -18.8,3.71 -23.61,11.09 -4.85,7.38 -7.23,18.51 -7.23,33.45zm103.69 0.09c0,24.42 -6.42,43.53 -19.29,57.33 -12.87,13.78 -30.84,20.66 -53.85,20.66 -14.38,0 -27.07,-3.17 -38.12,-9.49 -11,-6.28 -19.42,-15.36 -25.33,-27.17 -5.92,-11.82 -8.85,-25.62 -8.85,-41.33 0,-24.56 6.37,-43.62 19.15,-57.23 12.83,-13.62 30.8,-20.4 53.98,-20.4 14.39,0 27.09,3.13 38.12,9.4 11,6.28 19.44,15.27 25.35,26.98 5.9,11.73 8.84,25.49 8.84,41.25zm151.77 75.24l-11.55 -52.51 -15.54 -66.3 -0.96 0 -27.4 118.81 -44.03 0 -42.67 -150.11 40.79 0 17.33 66.43c2.78,11.92 5.58,28.38 8.47,49.31l0.77 0c0.38,-6.82 1.93,-17.6 4.73,-32.35l2.15 -11.41 18.51 -71.98 45.13 0 17.55 71.98c0.38,1.97 0.92,4.86 1.7,8.71 0.77,3.85 1.52,7.92 2.2,12.27 0.73,4.36 1.37,8.62 1.97,12.79 0.6,4.13 0.91,7.47 1.01,9.99l0.77 0c0.83,-6.46 2.26,-15.3 4.31,-26.53 2.06,-11.23 3.53,-18.84 4.44,-22.78l18.01 -66.43 40.11 0 -43.22 150.11 -44.58 0zm174.17 -123.72c-8.71,0 -15.5,2.75 -20.44,8.25 -4.91,5.49 -7.75,13.28 -8.48,23.37l57.5 0c-0.18,-10.09 -2.79,-17.88 -7.92,-23.37 -5.09,-5.5 -12.01,-8.25 -20.66,-8.25zm5.76 126.47c-24.19,0 -43.07,-6.69 -56.67,-20.02 -13.61,-13.35 -20.39,-32.23 -20.39,-56.64 0,-25.15 6.28,-44.59 18.82,-58.33 12.6,-13.75 29.97,-20.63 52.19,-20.63 21.22,0 37.72,6.06 49.54,18.1 11.82,12.1 17.74,28.74 17.74,50.04l0 19.85 -96.82 0c0.46,11.63 3.88,20.75 10.3,27.3 6.47,6.55 15.53,9.8 27.18,9.8 9.02,0 17.59,-0.95 25.66,-2.84 8.02,-1.86 16.44,-4.85 25.24,-8.97l0 31.71c-7.19,3.57 -14.84,6.28 -23,8.02 -8.11,1.74 -18.06,2.61 -29.79,2.61zm178.21 -155.62c5.54,0 10.16,0.42 13.83,1.2l-3.07 38.39c-3.34,-0.87 -7.33,-1.32 -12.09,-1.32 -13.05,0 -23.23,3.35 -30.52,10.07 -7.28,6.7 -10.95,16.09 -10.95,28.19l0 76.34 -40.92 0 0 -150.11 31.02 0 6.01 25.29 2.01 0c4.68,-8.38 10.96,-15.17 18.88,-20.34 7.88,-5.14 16.5,-7.71 25.8,-7.71zm39.41 -36.1c0,-13.33 7.42,-19.98 22.26,-19.98 14.84,0 22.28,6.65 22.28,19.98 0,6.36 -1.84,11.32 -5.55,14.84 -3.72,3.54 -9.31,5.32 -16.73,5.32 -14.84,0 -22.26,-6.73 -22.26,-20.16zm42.65 188.97l-40.91 0 0 -150.11 40.91 0 0 150.11zm181.47 0l-40.96 0 0 -87.66c0,-10.82 -1.93,-18.97 -5.77,-24.37 -3.85,-5.41 -9.95,-8.11 -18.38,-8.11 -11.4,0 -19.71,3.8 -24.79,11.45 -5.08,7.64 -7.65,20.35 -7.65,38.07l0 70.62 -40.93 0 0 -150.11 31.25 0 5.51 19.24 2.29 0c4.58,-7.24 10.86,-12.73 18.88,-16.44 7.98,-3.71 17.09,-5.56 27.26,-5.56 17.46,0 30.71,4.73 39.73,14.16 9.03,9.45 13.56,23.05 13.56,40.88l0 97.83zm172.84 -150.11l0 20.89 -23.51 6.05c4.31,6.68 6.47,14.2 6.47,22.54 0,16.08 -5.64,28.64 -16.86,37.68 -11.23,8.97 -26.86,13.45 -46.79,13.45l-7.37 -0.4 -6.05 -0.64c-4.22,3.2 -6.32,6.78 -6.32,10.72 0,5.91 7.51,8.85 22.53,8.85l25.54 0c16.44,0 29,3.52 37.66,10.57 8.6,7.11 12.96,17.47 12.96,31.12 0,17.55 -7.32,31.11 -21.95,40.78 -14.66,9.67 -35.64,14.47 -63.04,14.47 -20.95,0 -36.93,-3.61 -47.98,-10.9 -11.09,-7.28 -16.58,-17.5 -16.58,-30.65 0,-9.02 2.79,-16.59 8.43,-22.64 5.62,-6.09 13.93,-10.45 24.83,-13.01 -4.22,-1.79 -7.88,-4.71 -11,-8.8 -3.11,-4.08 -4.72,-8.39 -4.72,-12.97 0,-5.72 1.69,-10.49 4.99,-14.28 3.31,-3.81 8.12,-7.53 14.34,-11.19 -7.87,-3.44 -14.11,-8.89 -18.69,-16.4 -4.63,-7.52 -6.91,-16.36 -6.91,-26.57 0,-16.37 5.31,-29.06 15.94,-38 10.68,-8.93 25.89,-13.43 45.68,-13.43 4.17,0 9.17,0.38 14.95,1.1 5.76,0.75 9.47,1.29 11.09,1.66l52.36 0zm-115.87 171.33c0,5.62 2.7,10.07 8.1,13.29 5.46,3.19 13.02,4.81 22.78,4.81 14.66,0 26.16,-2.03 34.5,-6.06 8.34,-3.98 12.51,-9.49 12.51,-16.45 0,-5.64 -2.48,-9.53 -7.38,-11.67 -4.95,-2.16 -12.56,-3.22 -22.86,-3.22l-21.22 0c-7.51,0 -13.79,1.79 -18.83,5.31 -5.09,3.54 -7.6,8.17 -7.6,13.99zm14.88 -122.21c0,8.15 1.89,14.62 5.6,19.38 3.71,4.73 9.39,7.1 16.99,7.1 7.7,0 13.33,-2.37 16.92,-7.1 3.56,-4.76 5.35,-11.23 5.35,-19.38 0,-18.11 -7.42,-27.13 -22.27,-27.13 -15.07,0 -22.59,9.02 -22.59,27.13zm200.33 -95.3l61.07 0c27.86,0 48.07,3.94 60.63,11.86 12.6,7.93 18.88,20.52 18.88,37.84 0,11.74 -2.76,21.35 -8.25,28.88 -5.5,7.5 -12.83,12.04 -21.95,13.55l0 1.33c12.42,2.8 21.39,7.98 26.9,15.59 5.54,7.6 8.29,17.72 8.29,30.32 0,17.93 -6.51,31.86 -19.42,41.89 -12.93,10.03 -30.49,15.03 -52.71,15.03l-73.44 0 0 -196.29zm41.6 77.79l24.19 0c11.28,0 19.43,-1.74 24.52,-5.22 5.04,-3.53 7.57,-9.31 7.57,-17.37 0,-7.55 -2.76,-12.92 -8.25,-16.21 -5.51,-3.26 -14.22,-4.91 -26.12,-4.91l-21.91 0 0 43.71zm0 33l0 51.13 27.13 0c11.49,0 19.93,-2.2 25.38,-6.59 5.51,-4.35 8.21,-11.09 8.21,-20.12 0,-16.27 -11.65,-24.42 -34.93,-24.42l-25.79 0zm246.15 85.5l-5.5 -19.2 -2.15 0c-4.4,7.01 -10.64,12.42 -18.66,16.21 -8.06,3.82 -17.22,5.74 -27.48,5.74 -17.64,0 -30.93,-4.72 -39.86,-14.16 -8.94,-9.44 -13.43,-23.04 -13.43,-40.78l0 -97.92 40.96 0 0 87.66c0,10.81 1.92,18.96 5.78,24.37 3.79,5.41 9.94,8.11 18.32,8.11 11.46,0 19.75,-3.84 24.83,-11.51 5.1,-7.65 7.67,-20.29 7.67,-38.03l0 -70.6 40.91 0 0 150.11 -31.39 0zm179.08 -44.54c0,15.39 -5.31,27.13 -16.05,35.19 -10.67,8.06 -26.66,12.1 -47.96,12.1 -10.91,0 -20.21,-0.74 -27.92,-2.2 -7.69,-1.51 -14.88,-3.66 -21.62,-6.56l0 -33.81c7.61,3.57 16.17,6.55 25.7,8.98 9.54,2.42 17.91,3.62 25.16,3.62 14.89,0 22.31,-4.31 22.31,-12.93 0,-3.2 -1,-5.81 -2.97,-7.83 -1.97,-2.02 -5.36,-4.3 -10.17,-6.87 -4.86,-2.52 -11.28,-5.49 -19.34,-8.93 -11.55,-4.81 -20.02,-9.31 -25.43,-13.43 -5.41,-4.13 -9.35,-8.85 -11.82,-14.16 -2.48,-5.37 -3.67,-11.92 -3.67,-19.71 0,-13.28 5.13,-23.59 15.49,-30.88 10.3,-7.28 24.97,-10.91 43.94,-10.91 18.1,0 35.65,3.94 52.75,11.78l-12.33 29.47c-7.53,-3.21 -14.53,-5.87 -21.08,-7.94 -6.51,-2.05 -13.2,-3.06 -19.98,-3.06 -12.09,0 -18.14,3.25 -18.14,9.8 0,3.67 1.97,6.88 5.86,9.53 3.9,2.72 12.42,6.7 25.56,11.96 11.69,4.77 20.31,9.21 25.76,13.33 5.46,4.13 9.48,8.85 12.09,14.22 2.57,5.41 3.86,11.81 3.86,19.24zm30.24 -144.43c0,-13.33 7.42,-19.98 22.26,-19.98 14.84,0 22.28,6.65 22.28,19.98 0,6.36 -1.84,11.32 -5.55,14.84 -3.71,3.54 -9.31,5.32 -16.73,5.32 -14.84,0 -22.26,-6.73 -22.26,-20.16zm42.65 188.97l-40.91 0 0 -150.11 40.91 0 0 150.11zm181.45 0l-40.96 0 0 -87.66c0,-10.82 -1.92,-18.97 -5.76,-24.37 -3.86,-5.41 -9.95,-8.11 -18.38,-8.11 -11.41,0 -19.71,3.8 -24.79,11.45 -5.08,7.64 -7.65,20.35 -7.65,38.07l0 70.62 -40.92 0 0 -150.11 31.24 0 5.51 19.24 2.28 0c4.58,-7.24 10.86,-12.73 18.88,-16.44 7.98,-3.71 17.1,-5.56 27.26,-5.56 17.47,0 30.72,4.73 39.73,14.16 9.04,9.45 13.56,23.05 13.56,40.88l0 97.83zm104.4 -123.72c-8.71,0 -15.5,2.75 -20.44,8.25 -4.91,5.49 -7.75,13.28 -8.48,23.37l57.5 0c-0.18,-10.09 -2.79,-17.88 -7.92,-23.37 -5.09,-5.5 -12.01,-8.25 -20.66,-8.25zm5.76 126.47c-24.19,0 -43.07,-6.69 -56.67,-20.02 -13.61,-13.35 -20.39,-32.23 -20.39,-56.64 0,-25.15 6.28,-44.59 18.82,-58.33 12.6,-13.75 29.97,-20.63 52.19,-20.63 21.23,0 37.72,6.06 49.54,18.1 11.82,12.1 17.74,28.74 17.74,50.04l0 19.85 -96.82 0c0.46,11.63 3.88,20.75 10.31,27.3 6.46,6.55 15.52,9.8 27.17,9.8 9.02,0 17.6,-0.95 25.66,-2.84 8.02,-1.86 16.44,-4.85 25.25,-8.97l0 31.71c-7.2,3.57 -14.85,6.28 -23.01,8.02 -8.11,1.74 -18.05,2.61 -29.79,2.61zm199.15 -47.29c0,15.39 -5.31,27.13 -16.04,35.19 -10.68,8.06 -26.66,12.1 -47.97,12.1 -10.9,0 -20.21,-0.74 -27.91,-2.2 -7.7,-1.51 -14.89,-3.66 -21.62,-6.56l0 -33.81c7.6,3.57 16.17,6.55 25.7,8.98 9.53,2.42 17.91,3.62 25.16,3.62 14.88,0 22.31,-4.31 22.31,-12.93 0,-3.2 -1,-5.81 -2.97,-7.83 -1.97,-2.02 -5.37,-4.3 -10.18,-6.87 -4.85,-2.52 -11.27,-5.49 -19.34,-8.93 -11.54,-4.81 -20.02,-9.31 -25.43,-13.43 -5.41,-4.13 -9.35,-8.85 -11.82,-14.16 -2.48,-5.37 -3.66,-11.92 -3.66,-19.71 0,-13.28 5.12,-23.59 15.48,-30.88 10.31,-7.28 24.98,-10.91 43.94,-10.91 18.1,0 35.65,3.94 52.75,11.78l-12.33 29.47c-7.52,-3.21 -14.53,-5.87 -21.08,-7.94 -6.51,-2.05 -13.2,-3.06 -19.98,-3.06 -12.09,0 -18.14,3.25 -18.14,9.8 0,3.67 1.97,6.88 5.87,9.53 3.89,2.72 12.41,6.7 25.56,11.96 11.69,4.77 20.31,9.21 25.76,13.33 5.45,4.13 9.47,8.85 12.09,14.22 2.57,5.41 3.85,11.81 3.85,19.24zm136.64 0c0,15.39 -5.31,27.13 -16.05,35.19 -10.67,8.06 -26.65,12.1 -47.96,12.1 -10.91,0 -20.21,-0.74 -27.92,-2.2 -7.69,-1.51 -14.88,-3.66 -21.62,-6.56l0 -33.81c7.61,3.57 16.17,6.55 25.7,8.98 9.54,2.42 17.92,3.62 25.17,3.62 14.88,0 22.3,-4.31 22.3,-12.93 0,-3.2 -1,-5.81 -2.97,-7.83 -1.97,-2.02 -5.36,-4.3 -10.17,-6.87 -4.85,-2.52 -11.28,-5.49 -19.34,-8.93 -11.55,-4.81 -20.02,-9.31 -25.43,-13.43 -5.41,-4.13 -9.35,-8.85 -11.82,-14.16 -2.48,-5.37 -3.67,-11.92 -3.67,-19.71 0,-13.28 5.13,-23.59 15.49,-30.88 10.3,-7.28 24.97,-10.91 43.94,-10.91 18.1,0 35.65,3.94 52.75,11.78l-12.33 29.47c-7.52,-3.21 -14.53,-5.87 -21.08,-7.94 -6.51,-2.05 -13.2,-3.06 -19.98,-3.06 -12.09,0 -18.14,3.25 -18.14,9.8 0,3.67 1.97,6.88 5.86,9.53 3.9,2.72 12.42,6.7 25.56,11.96 11.69,4.77 20.31,9.21 25.76,13.33 5.46,4.13 9.48,8.85 12.09,14.22 2.57,5.41 3.86,11.81 3.86,19.24zm94.16 -79.18c-8.71,0 -15.5,2.75 -20.44,8.25 -4.91,5.49 -7.75,13.28 -8.47,23.37l57.5 0c-0.19,-10.09 -2.8,-17.88 -7.93,-23.37 -5.09,-5.5 -12.01,-8.25 -20.66,-8.25zm5.77 126.47c-24.2,0 -43.08,-6.69 -56.68,-20.02 -13.61,-13.35 -20.39,-32.23 -20.39,-56.64 0,-25.15 6.28,-44.59 18.82,-58.33 12.6,-13.75 29.97,-20.63 52.19,-20.63 21.23,0 37.72,6.06 49.54,18.1 11.82,12.1 17.74,28.74 17.74,50.04l0 19.85 -96.82 0c0.46,11.63 3.88,20.75 10.31,27.3 6.46,6.55 15.52,9.8 27.17,9.8 9.02,0 17.6,-0.95 25.66,-2.84 8.02,-1.86 16.44,-4.85 25.25,-8.97l0 31.71c-7.2,3.57 -14.85,6.28 -23.01,8.02 -8.11,1.74 -18.05,2.61 -29.78,2.61zm199.14 -47.29c0,15.39 -5.31,27.13 -16.04,35.19 -10.68,8.06 -26.66,12.1 -47.97,12.1 -10.9,0 -20.21,-0.74 -27.91,-2.2 -7.7,-1.51 -14.89,-3.66 -21.62,-6.56l0 -33.81c7.6,3.57 16.17,6.55 25.7,8.98 9.53,2.42 17.91,3.62 25.16,3.62 14.88,0 22.31,-4.31 22.31,-12.93 0,-3.2 -1,-5.81 -2.97,-7.83 -1.97,-2.02 -5.37,-4.3 -10.18,-6.87 -4.85,-2.52 -11.27,-5.49 -19.34,-8.93 -11.54,-4.81 -20.02,-9.31 -25.43,-13.43 -5.41,-4.13 -9.35,-8.85 -11.81,-14.16 -2.49,-5.37 -3.67,-11.92 -3.67,-19.71 0,-13.28 5.12,-23.59 15.48,-30.88 10.31,-7.28 24.98,-10.91 43.94,-10.91 18.1,0 35.65,3.94 52.75,11.78l-12.33 29.47c-7.52,-3.21 -14.53,-5.87 -21.08,-7.94 -6.51,-2.05 -13.2,-3.06 -19.98,-3.06 -12.09,0 -18.14,3.25 -18.14,9.8 0,3.67 1.97,6.88 5.87,9.53 3.89,2.72 12.41,6.7 25.56,11.96 11.69,4.77 20.31,9.21 25.76,13.33 5.45,4.13 9.48,8.85 12.09,14.22 2.57,5.41 3.85,11.81 3.85,19.24zm297.83 44.54l-47.38 0 -26.63 -103.14c-0.96,-3.67 -2.65,-11.23 -5.04,-22.74 -2.32,-11.5 -3.71,-19.24 -4.06,-23.17 -0.56,4.85 -1.89,12.6 -4.04,23.32 -2.16,10.67 -3.81,18.32 -4.96,22.86l-26.48 102.87 -47.24 0 -50.08 -196.29 40.96 0 25.12 107.12c4.35,19.79 7.56,36.93 9.53,51.46 0.5,-5.14 1.74,-13.01 3.65,-23.69 1.93,-10.73 3.77,-19.02 5.47,-24.93l28.58 -109.96 39.37 0 28.58 109.96c1.24,4.91 2.84,12.46 4.73,22.55 1.88,10.12 3.29,18.82 4.26,26.07 0.92,-7.02 2.33,-15.73 4.3,-26.12 1.98,-10.44 3.77,-18.88 5.36,-25.34l24.98 -107.12 40.96 0 -49.94 196.29zm69.65 -188.97c0,-13.33 7.42,-19.98 22.26,-19.98 14.84,0 22.28,6.65 22.28,19.98 0,6.36 -1.84,11.32 -5.55,14.84 -3.71,3.54 -9.31,5.32 -16.73,5.32 -14.84,0 -22.26,-6.73 -22.26,-20.16zm42.66 188.97l-40.92 0 0 -150.11 40.92 0 0 150.11zm106.16 -29.97c7.19,0 15.77,-1.56 25.8,-4.71l0 30.55c-10.21,4.58 -22.73,6.88 -37.57,6.88 -16.4,0 -28.32,-4.12 -35.78,-12.41 -7.48,-8.31 -11.23,-20.73 -11.23,-37.27l0 -72.4 -19.57 0 0 -17.35 22.55 -13.7 11.82 -31.67 26.16 0 0 31.94 42.03 0 0 30.78 -42.03 0 0 72.32c0,5.82 1.65,10.12 4.91,12.87 3.25,2.8 7.56,4.17 12.91,4.17zm194.61 29.97l-40.96 0 0 -87.66c0,-21.68 -8.02,-32.48 -24.15,-32.48 -11.4,0 -19.71,3.9 -24.79,11.67 -5.08,7.8 -7.65,20.4 -7.65,37.85l0 70.62 -40.91 0 0 -208.95 40.91 0 0 42.61c0,3.3 -0.33,11.09 -0.91,23.38l-0.97 12.09 2.15 0c9.12,-14.66 23.61,-22 43.49,-22 17.6,0 30.98,4.73 40.09,14.22 9.12,9.48 13.7,23.09 13.7,40.82l0 97.83zm157.81 0l-40.96 0 0 -196.29 112.54 0 0 34.08 -71.58 0 0 50.59 66.62 0 0 34.09 -66.62 0 0 77.53zm212.98 0l-5.5 -19.2 -2.15 0c-4.4,7.01 -10.63,12.42 -18.65,16.21 -8.07,3.82 -17.23,5.74 -27.49,5.74 -17.64,0 -30.93,-4.72 -39.86,-14.16 -8.94,-9.44 -13.43,-23.04 -13.43,-40.78l0 -97.92 40.96 0 0 87.66c0,10.81 1.92,18.96 5.78,24.37 3.79,5.41 9.95,8.11 18.32,8.11 11.46,0 19.75,-3.84 24.83,-11.51 5.1,-7.65 7.67,-20.29 7.67,-38.03l0 -70.6 40.92 0 0 150.11 -31.4 0zm137.6 -29.97c7.2,0 15.77,-1.56 25.81,-4.71l0 30.55c-10.22,4.58 -22.74,6.88 -37.58,6.88 -16.4,0 -28.31,-4.12 -35.78,-12.41 -7.48,-8.31 -11.23,-20.73 -11.23,-37.27l0 -72.4 -19.57 0 0 -17.35 22.55 -13.7 11.82 -31.67 26.16 0 0 31.94 42.03 0 0 30.78 -42.03 0 0 72.32c0,5.82 1.65,10.12 4.91,12.87 3.25,2.8 7.56,4.17 12.91,4.17zm162.41 29.97l-5.5 -19.2 -2.16 0c-4.4,7.01 -10.63,12.42 -18.65,16.21 -8.07,3.82 -17.23,5.74 -27.49,5.74 -17.64,0 -30.93,-4.72 -39.86,-14.16 -8.93,-9.44 -13.43,-23.04 -13.43,-40.78l0 -97.92 40.96 0 0 87.66c0,10.81 1.93,18.96 5.78,24.37 3.8,5.41 9.95,8.11 18.32,8.11 11.46,0 19.76,-3.84 24.84,-11.51 5.09,-7.65 7.66,-20.29 7.66,-38.03l0 -70.6 40.93 0 0 150.11 -31.4 0zm158.15 -152.87c5.53,0 10.16,0.42 13.83,1.2l-3.07 38.39c-3.34,-0.87 -7.34,-1.32 -12.09,-1.32 -13.06,0 -23.23,3.35 -30.53,10.07 -7.28,6.7 -10.94,16.09 -10.94,28.19l0 76.34 -40.92 0 0 -150.11 31.01 0 6.01 25.29 2.01 0c4.68,-8.38 10.96,-15.17 18.88,-20.34 7.88,-5.14 16.5,-7.71 25.81,-7.71zm97.83 29.15c-8.71,0 -15.5,2.75 -20.44,8.25 -4.91,5.49 -7.75,13.28 -8.48,23.37l57.5 0c-0.18,-10.09 -2.79,-17.88 -7.92,-23.37 -5.09,-5.5 -12.01,-8.25 -20.66,-8.25zm5.76 126.47c-24.19,0 -43.07,-6.69 -56.67,-20.02 -13.61,-13.35 -20.39,-32.23 -20.39,-56.64 0,-25.15 6.28,-44.59 18.82,-58.33 12.6,-13.75 29.97,-20.63 52.19,-20.63 21.23,0 37.72,6.06 49.54,18.1 11.82,12.1 17.74,28.74 17.74,50.04l0 19.85 -96.82 0c0.46,11.63 3.88,20.75 10.31,27.3 6.46,6.55 15.52,9.8 27.17,9.8 9.02,0 17.6,-0.95 25.66,-2.84 8.02,-1.86 16.44,-4.85 25.25,-8.97l0 31.71c-7.2,3.57 -14.85,6.28 -23.01,8.02 -8.11,1.74 -18.05,2.61 -29.79,2.61zm210.74 -111.9l13.43 0c13.14,0 22.86,-2.2 29.08,-6.59 6.28,-4.36 9.41,-11.28 9.41,-20.67 0,-9.31 -3.21,-15.94 -9.59,-19.89 -6.41,-3.94 -16.31,-5.91 -29.73,-5.91l-12.6 0 0 53.06zm0 33.82l0 75.33 -41.6 0 0 -196.29 57.17 0c26.67,0 46.38,4.85 59.15,14.55 12.83,9.72 19.21,24.48 19.21,44.23 0,11.55 -3.16,21.81 -9.53,30.84 -6.32,8.98 -15.3,16.03 -26.94,21.12 29.51,44.13 48.75,72.67 57.68,85.55l-46.18 0 -46.83 -75.33 -22.13 0zm198.86 -48.39c-8.71,0 -15.5,2.75 -20.44,8.25 -4.91,5.49 -7.75,13.28 -8.48,23.37l57.5 0c-0.18,-10.09 -2.79,-17.88 -7.92,-23.37 -5.09,-5.5 -12.01,-8.25 -20.66,-8.25zm5.76 126.47c-24.19,0 -43.07,-6.69 -56.67,-20.02 -13.61,-13.35 -20.39,-32.23 -20.39,-56.64 0,-25.15 6.28,-44.59 18.82,-58.33 12.6,-13.75 29.97,-20.63 52.19,-20.63 21.22,0 37.72,6.06 49.54,18.1 11.82,12.1 17.74,28.74 17.74,50.04l0 19.85 -96.82 0c0.46,11.63 3.88,20.75 10.3,27.3 6.47,6.55 15.53,9.8 27.18,9.8 9.02,0 17.59,-0.95 25.66,-2.84 8.02,-1.86 16.44,-4.85 25.24,-8.97l0 31.71c-7.19,3.57 -14.84,6.28 -23,8.02 -8.11,1.74 -18.06,2.61 -29.79,2.61zm189.8 -2.75l-7.92 -20.4 -1.06 0c-6.92,8.71 -14.02,14.76 -21.3,18.1 -7.3,3.35 -16.77,5.05 -28.5,5.05 -14.45,0 -25.76,-4.12 -34.06,-12.37 -8.29,-8.25 -12.41,-19.98 -12.41,-35.2 0,-15.94 5.59,-27.71 16.72,-35.27 11.14,-7.57 27.95,-11.78 50.41,-12.56l26.02 -0.83 0 -6.59c0,-15.22 -7.78,-22.82 -23.36,-22.82 -11.96,0 -26.08,3.62 -42.25,10.86l-13.57 -27.59c17.28,-9.02 36.44,-13.52 57.47,-13.52 20.11,0 35.55,4.4 46.27,13.15 10.78,8.76 16.13,22.09 16.13,40l0 99.99 -28.59 0zm-12.1 -69.56l-15.8 0.55c-11.92,0.36 -20.81,2.47 -26.63,6.46 -5.81,3.95 -8.71,9.94 -8.71,18.01 0,11.54 6.65,17.32 19.9,17.32 9.47,0 17.04,-2.75 22.72,-8.2 5.68,-5.46 8.52,-12.73 8.52,-21.77l0 -12.37zm130.36 72.31c-17.6,0 -31.47,-6.83 -41.56,-20.54 -10.08,-13.7 -15.07,-32.66 -15.07,-56.95 0,-24.61 5.08,-43.76 15.34,-57.5 10.27,-13.75 24.39,-20.63 42.38,-20.63 18.89,0 33.31,7.34 43.26,22.05l1.33 0c-2.06,-11.23 -3.07,-21.22 -3.07,-30.01l0 -48.12 41.06 0 0 208.95 -31.38 0 -7.94 -19.38 -1.74 0c-9.35,14.75 -23.51,22.13 -42.61,22.13zm14.38 -32.72c10.5,0 18.15,-3.03 23.05,-9.12 4.87,-6.1 7.52,-16.4 7.98,-31.01l0 -4.41c0,-16.13 -2.47,-27.63 -7.47,-34.64 -4.95,-6.97 -13.01,-10.45 -24.24,-10.45 -9.12,0 -16.22,3.86 -21.31,11.59 -5.04,7.75 -7.55,19.02 -7.55,33.78 0,14.76 2.55,25.79 7.65,33.17 5.08,7.38 12.41,11.09 21.89,11.09zm90.6 -120.14l44.85 0 28.32 84.44c2.44,7.34 4.08,16 4.99,26.04l0.79 0c1.01,-9.22 2.92,-17.93 5.78,-26.04l27.8 -84.44 43.9 0 -63.51 169.26c-5.82,15.67 -14.12,27.4 -24.92,35.15 -10.77,7.78 -23.38,11.67 -37.8,11.67 -7.07,0 -13.98,-0.77 -20.81,-2.28l0 -32.44c4.95,1.14 10.32,1.74 16.12,1.74 7.25,0 13.58,-2.19 18.99,-6.65 5.45,-4.44 9.66,-11.13 12.68,-20.06l2.43 -7.38 -59.61 -149.01zm294.12 40.96l13.43 0c13.14,0 22.86,-2.2 29.08,-6.59 6.28,-4.36 9.41,-11.28 9.41,-20.67 0,-9.31 -3.21,-15.94 -9.59,-19.89 -6.41,-3.94 -16.31,-5.91 -29.73,-5.91l-12.6 0 0 53.06zm0 33.82l0 75.33 -41.6 0 0 -196.29 57.17 0c26.67,0 46.38,4.85 59.15,14.55 12.83,9.72 19.21,24.48 19.21,44.23 0,11.55 -3.16,21.81 -9.53,30.84 -6.32,8.98 -15.3,16.03 -26.94,21.12 29.51,44.13 48.75,72.67 57.68,85.55l-46.18 0 -46.83 -75.33 -22.13 0zm198.86 -48.39c-8.71,0 -15.5,2.75 -20.44,8.25 -4.91,5.49 -7.75,13.28 -8.48,23.37l57.5 0c-0.18,-10.09 -2.79,-17.88 -7.92,-23.37 -5.09,-5.5 -12.01,-8.25 -20.66,-8.25zm5.76 126.47c-24.19,0 -43.07,-6.69 -56.67,-20.02 -13.61,-13.35 -20.39,-32.23 -20.39,-56.64 0,-25.15 6.28,-44.59 18.82,-58.33 12.6,-13.75 29.97,-20.63 52.19,-20.63 21.22,0 37.72,6.06 49.54,18.1 11.82,12.1 17.74,28.74 17.74,50.04l0 19.85 -96.82 0c0.46,11.63 3.88,20.75 10.31,27.3 6.46,6.55 15.52,9.8 27.17,9.8 9.02,0 17.59,-0.95 25.66,-2.84 8.02,-1.86 16.44,-4.85 25.24,-8.97l0 31.71c-7.19,3.57 -14.84,6.28 -23,8.02 -8.11,1.74 -18.05,2.61 -29.79,2.61zm199.15 -47.29c0,15.39 -5.31,27.13 -16.04,35.19 -10.68,8.06 -26.66,12.1 -47.97,12.1 -10.9,0 -20.21,-0.74 -27.91,-2.2 -7.7,-1.51 -14.89,-3.66 -21.62,-6.56l0 -33.81c7.6,3.57 16.16,6.55 25.7,8.98 9.53,2.42 17.91,3.62 25.16,3.62 14.88,0 22.31,-4.31 22.31,-12.93 0,-3.2 -1,-5.81 -2.97,-7.83 -1.97,-2.02 -5.37,-4.3 -10.18,-6.87 -4.85,-2.52 -11.27,-5.49 -19.34,-8.93 -11.54,-4.81 -20.02,-9.31 -25.43,-13.43 -5.41,-4.13 -9.35,-8.85 -11.82,-14.16 -2.48,-5.37 -3.66,-11.92 -3.66,-19.71 0,-13.28 5.12,-23.59 15.48,-30.88 10.31,-7.28 24.98,-10.91 43.94,-10.91 18.1,0 35.65,3.94 52.75,11.78l-12.33 29.47c-7.52,-3.21 -14.53,-5.87 -21.08,-7.94 -6.51,-2.05 -13.2,-3.06 -19.98,-3.06 -12.09,0 -18.14,3.25 -18.14,9.8 0,3.67 1.97,6.88 5.87,9.53 3.89,2.72 12.41,6.7 25.56,11.96 11.69,4.77 20.31,9.21 25.76,13.33 5.45,4.13 9.47,8.85 12.09,14.22 2.57,5.41 3.85,11.81 3.85,19.24z"/>
     <path class="fil7" d="M8884.3 1497.09c0,14.84 2.42,26.08 7.28,33.68 4.9,7.6 12.83,11.41 23.83,11.41 10.9,0 18.74,-3.76 23.55,-11.32 4.76,-7.57 7.15,-18.84 7.15,-33.77 0,-14.85 -2.39,-25.99 -7.24,-33.41 -4.81,-7.42 -12.74,-11.13 -23.73,-11.13 -10.92,0 -18.8,3.71 -23.61,11.09 -4.85,7.38 -7.23,18.51 -7.23,33.45zm103.69 0.09c0,24.42 -6.42,43.53 -19.29,57.33 -12.87,13.78 -30.84,20.66 -53.85,20.66 -14.38,0 -27.07,-3.17 -38.12,-9.49 -11,-6.28 -19.42,-15.36 -25.33,-27.17 -5.92,-11.82 -8.85,-25.62 -8.85,-41.33 0,-24.56 6.37,-43.62 19.15,-57.23 12.84,-13.62 30.8,-20.4 53.98,-20.4 14.39,0 27.09,3.13 38.12,9.4 11,6.28 19.44,15.27 25.35,26.98 5.9,11.73 8.84,25.49 8.84,41.25zm140.16 75.24l-5.49 -19.2 -2.15 0c-4.4,7.01 -10.64,12.42 -18.66,16.21 -8.06,3.82 -17.22,5.74 -27.48,5.74 -17.64,0 -30.93,-4.72 -39.87,-14.16 -8.93,-9.44 -13.42,-23.04 -13.42,-40.78l0 -97.92 40.95 0 0 87.66c0,10.81 1.93,18.96 5.78,24.37 3.8,5.41 9.95,8.11 18.33,8.11 11.46,0 19.75,-3.84 24.83,-11.51 5.1,-7.65 7.67,-20.29 7.67,-38.03l0 -70.6 40.91 0 0 150.11 -31.4 0zm158.15 -152.87c5.54,0 10.16,0.42 13.83,1.2l-3.07 38.39c-3.34,-0.87 -7.34,-1.32 -12.09,-1.32 -13.06,0 -23.23,3.35 -30.53,10.07 -7.27,6.7 -10.94,16.09 -10.94,28.19l0 76.34 -40.92 0 0 -150.11 31.01 0 6.01 25.29 2.01 0c4.68,-8.38 10.96,-15.17 18.88,-20.34 7.88,-5.14 16.5,-7.71 25.81,-7.71zm96.54 155.62c-46.69,0 -70.01,-25.66 -70.01,-76.94 0,-25.51 6.32,-44.99 19.01,-58.47 12.74,-13.47 30.94,-20.21 54.62,-20.21 17.36,0 32.95,3.4 46.73,10.18l-12.08 31.67c-6.47,-2.57 -12.42,-4.72 -17.97,-6.38 -5.54,-1.64 -11.09,-2.47 -16.63,-2.47 -21.3,0 -31.94,15.11 -31.94,45.36 0,29.32 10.64,43.99 31.94,43.99 7.84,0 15.12,-1.05 21.85,-3.16 6.7,-2.12 13.43,-5.41 20.13,-9.85l0 35.09c-6.61,4.23 -13.29,7.15 -20.08,8.75 -6.74,1.61 -15.26,2.44 -25.57,2.44zm142.65 -126.47c-8.71,0 -15.5,2.75 -20.44,8.25 -4.91,5.49 -7.75,13.28 -8.48,23.37l57.5 0c-0.18,-10.09 -2.79,-17.88 -7.92,-23.37 -5.09,-5.5 -12.01,-8.25 -20.66,-8.25zm5.76 126.47c-24.19,0 -43.07,-6.69 -56.67,-20.02 -13.61,-13.35 -20.39,-32.23 -20.39,-56.64 0,-25.15 6.28,-44.59 18.82,-58.33 12.6,-13.75 29.97,-20.63 52.19,-20.63 21.23,0 37.72,6.06 49.54,18.1 11.82,12.1 17.74,28.74 17.74,50.04l0 19.85 -96.82 0c0.46,11.63 3.88,20.75 10.31,27.3 6.46,6.55 15.52,9.8 27.17,9.8 9.02,0 17.6,-0.95 25.66,-2.84 8.02,-1.86 16.44,-4.85 25.25,-8.97l0 31.71c-7.2,3.57 -14.85,6.28 -23.01,8.02 -8.11,1.74 -18.05,2.61 -29.79,2.61zm199.15 -47.29c0,15.39 -5.31,27.13 -16.04,35.19 -10.68,8.06 -26.66,12.1 -47.97,12.1 -10.9,0 -20.21,-0.74 -27.91,-2.2 -7.7,-1.51 -14.89,-3.66 -21.62,-6.56l0 -33.81c7.6,3.57 16.16,6.55 25.7,8.98 9.53,2.42 17.91,3.62 25.16,3.62 14.88,0 22.31,-4.31 22.31,-12.93 0,-3.2 -1,-5.81 -2.97,-7.83 -1.97,-2.02 -5.37,-4.3 -10.18,-6.87 -4.85,-2.52 -11.27,-5.49 -19.34,-8.93 -11.54,-4.81 -20.02,-9.31 -25.43,-13.43 -5.41,-4.13 -9.35,-8.85 -11.82,-14.16 -2.48,-5.37 -3.66,-11.92 -3.66,-19.71 0,-13.28 5.12,-23.59 15.48,-30.88 10.31,-7.28 24.98,-10.91 43.94,-10.91 18.1,0 35.65,3.94 52.75,11.78l-12.33 29.47c-7.52,-3.21 -14.53,-5.87 -21.08,-7.94 -6.51,-2.05 -13.2,-3.06 -19.98,-3.06 -12.09,0 -18.14,3.25 -18.14,9.8 0,3.67 1.97,6.88 5.87,9.53 3.89,2.72 12.41,6.7 25.56,11.96 11.69,4.77 20.31,9.21 25.76,13.33 5.45,4.13 9.47,8.85 12.09,14.22 2.57,5.41 3.85,11.81 3.85,19.24z"/>
    </g>
   </g>
  </g>
 </g>
</svg>
